<?xml version="1.0" encoding="UTF-8" standalone="no"?>
<!DOCTYPE svg PUBLIC "-//W3C//DTD SVG 1.1//EN"
 "http://www.w3.org/Graphics/SVG/1.1/DTD/svg11.dtd">
<!-- Generated by graphviz version 13.1.0 (20250701.0955)
 -->
<!-- Title: src/driver_syn6288.h Pages: 1 -->
<svg width="650pt" height="232pt"
 viewBox="0.00 0.00 650.00 232.00" xmlns="http://www.w3.org/2000/svg" xmlns:xlink="http://www.w3.org/1999/xlink">
<g id="graph0" class="graph" transform="scale(1 1) rotate(0) translate(4 228)">
<title>src/driver_syn6288.h</title>
<!-- Node1 -->
<g id="Node000001" class="node">
<title>Node1</title>
<g id="a_Node000001"><a xlink:title="driver syn6288 header file">
<polygon fill="#999999" stroke="#666666" points="460.25,-224 353.5,-224 353.5,-204 460.25,-204 460.25,-224"/>
<text xml:space="preserve" text-anchor="middle" x="406.88" y="-210.5" font-family="Helvetica,sans-Serif" font-size="10.00">src/driver_syn6288.h</text>
</a>
</g>
</g>
<!-- Node2 -->
<g id="Node000002" class="node">
<title>Node2</title>
<g id="a_Node000002"><a xlink:href="driver__syn6288__interface_8h.html" target="_top" xlink:title="driver syn6288 interface header file">
<polygon fill="white" stroke="#666666" points="402.12,-168 279.62,-168 279.62,-136 402.12,-136 402.12,-168"/>
<text xml:space="preserve" text-anchor="start" x="287.62" y="-154.5" font-family="Helvetica,sans-Serif" font-size="10.00">interface/driver_syn6288</text>
<text xml:space="preserve" text-anchor="middle" x="340.88" y="-142.5" font-family="Helvetica,sans-Serif" font-size="10.00">_interface.h</text>
</a>
</g>
</g>
<!-- Node1&#45;&gt;Node2 -->
<g id="edge1_Node000001_Node000002" class="edge">
<title>Node1&#45;&gt;Node2</title>
<g id="a_edge1_Node000001_Node000002"><a xlink:title=" ">
<path fill="none" stroke="#63b8ff" d="M388.15,-195.98C378.6,-187.29 367.07,-176.81 357.79,-168.37"/>
<polygon fill="#63b8ff" stroke="#63b8ff" points="385.69,-198.47 395.44,-202.61 390.4,-193.29 385.69,-198.47"/>
</a>
</g>
</g>
<!-- Node12 -->
<g id="Node000012" class="node">
<title>Node12</title>
<g id="a_Node000012"><a xlink:href="driver__syn6288_8c.html" target="_top" xlink:title="driver syn6288 source file">
<polygon fill="white" stroke="#666666" points="527.25,-162 420.5,-162 420.5,-142 527.25,-142 527.25,-162"/>
<text xml:space="preserve" text-anchor="middle" x="473.88" y="-148.5" font-family="Helvetica,sans-Serif" font-size="10.00">src/driver_syn6288.c</text>
</a>
</g>
</g>
<!-- Node1&#45;&gt;Node12 -->
<g id="edge11_Node000001_Node000012" class="edge">
<title>Node1&#45;&gt;Node12</title>
<g id="a_edge11_Node000001_Node000012"><a xlink:title=" ">
<path fill="none" stroke="#63b8ff" d="M425.61,-196.22C437.94,-185.18 453.62,-171.14 463.7,-162.11"/>
<polygon fill="#63b8ff" stroke="#63b8ff" points="423.59,-193.34 418.47,-202.62 428.26,-198.55 423.59,-193.34"/>
</a>
</g>
</g>
<!-- Node3 -->
<g id="Node000003" class="node">
<title>Node3</title>
<g id="a_Node000003"><a xlink:href="driver__syn6288__advance_8h.html" target="_top" xlink:title="driver syn6288 advance header file">
<polygon fill="white" stroke="#666666" points="121.75,-100 0,-100 0,-68 121.75,-68 121.75,-100"/>
<text xml:space="preserve" text-anchor="start" x="8" y="-86.5" font-family="Helvetica,sans-Serif" font-size="10.00">example/driver_syn6288</text>
<text xml:space="preserve" text-anchor="middle" x="60.88" y="-74.5" font-family="Helvetica,sans-Serif" font-size="10.00">_advance.h</text>
</a>
</g>
</g>
<!-- Node2&#45;&gt;Node3 -->
<g id="edge2_Node000002_Node000003" class="edge">
<title>Node2&#45;&gt;Node3</title>
<g id="a_edge2_Node000002_Node000003"><a xlink:title=" ">
<path fill="none" stroke="#63b8ff" d="M268.47,-133.93C223.11,-123.24 165.27,-109.61 122.18,-99.45"/>
<polygon fill="#63b8ff" stroke="#63b8ff" points="267.42,-137.28 277.95,-136.17 269.02,-130.47 267.42,-137.28"/>
</a>
</g>
</g>
<!-- Node5 -->
<g id="Node000005" class="node">
<title>Node5</title>
<g id="a_Node000005"><a xlink:href="driver__syn6288__basic_8h.html" target="_top" xlink:title="driver syn6288 basic header file">
<polygon fill="white" stroke="#666666" points="261.75,-100 140,-100 140,-68 261.75,-68 261.75,-100"/>
<text xml:space="preserve" text-anchor="start" x="148" y="-86.5" font-family="Helvetica,sans-Serif" font-size="10.00">example/driver_syn6288</text>
<text xml:space="preserve" text-anchor="middle" x="200.88" y="-74.5" font-family="Helvetica,sans-Serif" font-size="10.00">_basic.h</text>
</a>
</g>
</g>
<!-- Node2&#45;&gt;Node5 -->
<g id="edge4_Node000002_Node000005" class="edge">
<title>Node2&#45;&gt;Node5</title>
<g id="a_edge4_Node000002_Node000005"><a xlink:title=" ">
<path fill="none" stroke="#63b8ff" d="M297.9,-130.74C277.16,-120.96 252.68,-109.42 233.49,-100.38"/>
<polygon fill="#63b8ff" stroke="#63b8ff" points="296.14,-133.78 306.68,-134.88 299.13,-127.45 296.14,-133.78"/>
</a>
</g>
</g>
<!-- Node7 -->
<g id="Node000007" class="node">
<title>Node7</title>
<g id="a_Node000007"><a xlink:href="driver__syn6288__interface__template_8c.html" target="_top" xlink:title="driver syn6288 interface template source file">
<polygon fill="white" stroke="#666666" points="402.12,-100 279.62,-100 279.62,-68 402.12,-68 402.12,-100"/>
<text xml:space="preserve" text-anchor="start" x="287.62" y="-86.5" font-family="Helvetica,sans-Serif" font-size="10.00">interface/driver_syn6288</text>
<text xml:space="preserve" text-anchor="middle" x="340.88" y="-74.5" font-family="Helvetica,sans-Serif" font-size="10.00">_interface_template.c</text>
</a>
</g>
</g>
<!-- Node2&#45;&gt;Node7 -->
<g id="edge6_Node000002_Node000007" class="edge">
<title>Node2&#45;&gt;Node7</title>
<g id="a_edge6_Node000002_Node000007"><a xlink:title=" ">
<path fill="none" stroke="#63b8ff" d="M340.88,-124.31C340.88,-116.12 340.88,-107.38 340.88,-100.22"/>
<polygon fill="#63b8ff" stroke="#63b8ff" points="337.38,-124.18 340.88,-134.18 344.38,-124.18 337.38,-124.18"/>
</a>
</g>
</g>
<!-- Node8 -->
<g id="Node000008" class="node">
<title>Node8</title>
<g id="a_Node000008"><a xlink:href="driver__syn6288__register__test_8h.html" target="_top" xlink:title="driver syn6288 register test header file">
<polygon fill="white" stroke="#666666" points="521.62,-100 420.12,-100 420.12,-68 521.62,-68 521.62,-100"/>
<text xml:space="preserve" text-anchor="start" x="428.12" y="-86.5" font-family="Helvetica,sans-Serif" font-size="10.00">test/driver_syn6288</text>
<text xml:space="preserve" text-anchor="middle" x="470.88" y="-74.5" font-family="Helvetica,sans-Serif" font-size="10.00">_register_test.h</text>
</a>
</g>
</g>
<!-- Node2&#45;&gt;Node8 -->
<g id="edge7_Node000002_Node000008" class="edge">
<title>Node2&#45;&gt;Node8</title>
<g id="a_edge7_Node000002_Node000008"><a xlink:title=" ">
<path fill="none" stroke="#63b8ff" d="M381.57,-130.34C400.66,-120.65 423.02,-109.3 440.59,-100.38"/>
<polygon fill="#63b8ff" stroke="#63b8ff" points="380.04,-127.19 372.7,-134.84 383.2,-133.43 380.04,-127.19"/>
</a>
</g>
</g>
<!-- Node10 -->
<g id="Node000010" class="node">
<title>Node10</title>
<g id="a_Node000010"><a xlink:href="driver__syn6288__synthesis__test_8h.html" target="_top" xlink:title="driver syn6288 synthesis test header file">
<polygon fill="white" stroke="#666666" points="641.62,-100 540.12,-100 540.12,-68 641.62,-68 641.62,-100"/>
<text xml:space="preserve" text-anchor="start" x="548.12" y="-86.5" font-family="Helvetica,sans-Serif" font-size="10.00">test/driver_syn6288</text>
<text xml:space="preserve" text-anchor="middle" x="590.88" y="-74.5" font-family="Helvetica,sans-Serif" font-size="10.00">_synthesis_test.h</text>
</a>
</g>
</g>
<!-- Node2&#45;&gt;Node10 -->
<g id="edge9_Node000002_Node000010" class="edge">
<title>Node2&#45;&gt;Node10</title>
<g id="a_edge9_Node000002_Node000010"><a xlink:title=" ">
<path fill="none" stroke="#63b8ff" d="M410.5,-132.62C451.53,-121.79 502.53,-108.32 539.82,-98.48"/>
<polygon fill="#63b8ff" stroke="#63b8ff" points="409.73,-129.2 400.95,-135.14 411.51,-135.97 409.73,-129.2"/>
</a>
</g>
</g>
<!-- Node4 -->
<g id="Node000004" class="node">
<title>Node4</title>
<g id="a_Node000004"><a xlink:href="driver__syn6288__advance_8c.html" target="_top" xlink:title="driver syn6288 advance source file">
<polygon fill="white" stroke="#666666" points="121.75,-32 0,-32 0,0 121.75,0 121.75,-32"/>
<text xml:space="preserve" text-anchor="start" x="8" y="-18.5" font-family="Helvetica,sans-Serif" font-size="10.00">example/driver_syn6288</text>
<text xml:space="preserve" text-anchor="middle" x="60.88" y="-6.5" font-family="Helvetica,sans-Serif" font-size="10.00">_advance.c</text>
</a>
</g>
</g>
<!-- Node3&#45;&gt;Node4 -->
<g id="edge3_Node000003_Node000004" class="edge">
<title>Node3&#45;&gt;Node4</title>
<g id="a_edge3_Node000003_Node000004"><a xlink:title=" ">
<path fill="none" stroke="#63b8ff" d="M60.88,-56.31C60.88,-48.12 60.88,-39.38 60.88,-32.22"/>
<polygon fill="#63b8ff" stroke="#63b8ff" points="57.38,-56.18 60.88,-66.18 64.38,-56.18 57.38,-56.18"/>
</a>
</g>
</g>
<!-- Node6 -->
<g id="Node000006" class="node">
<title>Node6</title>
<g id="a_Node000006"><a xlink:href="driver__syn6288__basic_8c.html" target="_top" xlink:title="driver syn6288 basic source file">
<polygon fill="white" stroke="#666666" points="261.75,-32 140,-32 140,0 261.75,0 261.75,-32"/>
<text xml:space="preserve" text-anchor="start" x="148" y="-18.5" font-family="Helvetica,sans-Serif" font-size="10.00">example/driver_syn6288</text>
<text xml:space="preserve" text-anchor="middle" x="200.88" y="-6.5" font-family="Helvetica,sans-Serif" font-size="10.00">_basic.c</text>
</a>
</g>
</g>
<!-- Node5&#45;&gt;Node6 -->
<g id="edge5_Node000005_Node000006" class="edge">
<title>Node5&#45;&gt;Node6</title>
<g id="a_edge5_Node000005_Node000006"><a xlink:title=" ">
<path fill="none" stroke="#63b8ff" d="M200.88,-56.31C200.88,-48.12 200.88,-39.38 200.88,-32.22"/>
<polygon fill="#63b8ff" stroke="#63b8ff" points="197.38,-56.18 200.88,-66.18 204.38,-56.18 197.38,-56.18"/>
</a>
</g>
</g>
<!-- Node9 -->
<g id="Node000009" class="node">
<title>Node9</title>
<g id="a_Node000009"><a xlink:href="driver__syn6288__register__test_8c.html" target="_top" xlink:title="driver syn6288 register test source file">
<polygon fill="white" stroke="#666666" points="521.62,-32 420.12,-32 420.12,0 521.62,0 521.62,-32"/>
<text xml:space="preserve" text-anchor="start" x="428.12" y="-18.5" font-family="Helvetica,sans-Serif" font-size="10.00">test/driver_syn6288</text>
<text xml:space="preserve" text-anchor="middle" x="470.88" y="-6.5" font-family="Helvetica,sans-Serif" font-size="10.00">_register_test.c</text>
</a>
</g>
</g>
<!-- Node8&#45;&gt;Node9 -->
<g id="edge8_Node000008_Node000009" class="edge">
<title>Node8&#45;&gt;Node9</title>
<g id="a_edge8_Node000008_Node000009"><a xlink:title=" ">
<path fill="none" stroke="#63b8ff" d="M470.88,-56.31C470.88,-48.12 470.88,-39.38 470.88,-32.22"/>
<polygon fill="#63b8ff" stroke="#63b8ff" points="467.38,-56.18 470.88,-66.18 474.38,-56.18 467.38,-56.18"/>
</a>
</g>
</g>
<!-- Node11 -->
<g id="Node000011" class="node">
<title>Node11</title>
<g id="a_Node000011"><a xlink:href="driver__syn6288__synthesis__test_8c.html" target="_top" xlink:title="driver syn6288 synthesis test source file">
<polygon fill="white" stroke="#666666" points="641.62,-32 540.12,-32 540.12,0 641.62,0 641.62,-32"/>
<text xml:space="preserve" text-anchor="start" x="548.12" y="-18.5" font-family="Helvetica,sans-Serif" font-size="10.00">test/driver_syn6288</text>
<text xml:space="preserve" text-anchor="middle" x="590.88" y="-6.5" font-family="Helvetica,sans-Serif" font-size="10.00">_synthesis_test.c</text>
</a>
</g>
</g>
<!-- Node10&#45;&gt;Node11 -->
<g id="edge10_Node000010_Node000011" class="edge">
<title>Node10&#45;&gt;Node11</title>
<g id="a_edge10_Node000010_Node000011"><a xlink:title=" ">
<path fill="none" stroke="#63b8ff" d="M590.88,-56.31C590.88,-48.12 590.88,-39.38 590.88,-32.22"/>
<polygon fill="#63b8ff" stroke="#63b8ff" points="587.38,-56.18 590.88,-66.18 594.38,-56.18 587.38,-56.18"/>
</a>
</g>
</g>
</g>
</svg>
