<?xml version="1.0" encoding="UTF-8" standalone="no"?>
<!DOCTYPE svg PUBLIC "-//W3C//DTD SVG 1.1//EN"
 "http://www.w3.org/Graphics/SVG/1.1/DTD/svg11.dtd">
<!-- Generated by graphviz version 13.1.0 (20250701.0955)
 -->
<!-- Title: syn6288_advance_init Pages: 1 -->
<svg width="455pt" height="644pt"
 viewBox="0.00 0.00 455.00 644.00" xmlns="http://www.w3.org/2000/svg" xmlns:xlink="http://www.w3.org/1999/xlink">
<g id="graph0" class="graph" transform="scale(1 1) rotate(0) translate(4 640)">
<title>syn6288_advance_init</title>
<!-- Node1 -->
<g id="Node000001" class="node">
<title>Node1</title>
<g id="a_Node000001"><a xlink:title="advance example init">
<polygon fill="#999999" stroke="#666666" points="112.75,-334 0,-334 0,-314 112.75,-314 112.75,-334"/>
<text xml:space="preserve" text-anchor="middle" x="56.38" y="-320.5" font-family="Helvetica,sans-Serif" font-size="10.00">syn6288_advance_init</text>
</a>
</g>
</g>
<!-- Node2 -->
<g id="Node000002" class="node">
<title>Node2</title>
<g id="a_Node000002"><a xlink:href="group__syn6288__base__driver.html#gac385bc0cec9baa9c51defeffcb354da4" target="_top" xlink:title="close the chip">
<polygon fill="white" stroke="#666666" points="260.75,-636 179.5,-636 179.5,-616 260.75,-616 260.75,-636"/>
<text xml:space="preserve" text-anchor="middle" x="220.12" y="-622.5" font-family="Helvetica,sans-Serif" font-size="10.00">syn6288_deinit</text>
</a>
</g>
</g>
<!-- Node1&#45;&gt;Node2 -->
<g id="edge1_Node000001_Node000002" class="edge">
<title>Node1&#45;&gt;Node2</title>
<g id="a_edge1_Node000001_Node000002"><a xlink:title=" ">
<path fill="none" stroke="#63b8ff" d="M57.4,-334.29C58.1,-375.27 66.32,-528.48 148.75,-607 154.29,-612.28 161.14,-616.12 168.37,-618.92"/>
<polygon fill="#63b8ff" stroke="#63b8ff" points="167.1,-622.19 177.69,-621.85 169.2,-615.51 167.1,-622.19"/>
</a>
</g>
</g>
<!-- Node3 -->
<g id="Node000003" class="node">
<title>Node3</title>
<g id="a_Node000003"><a xlink:href="group__syn6288__base__driver.html#ga1a996c8a944c78d467bfc250a9c9c326" target="_top" xlink:title="initialize the chip">
<polygon fill="white" stroke="#666666" points="255.5,-598 184.75,-598 184.75,-578 255.5,-578 255.5,-598"/>
<text xml:space="preserve" text-anchor="middle" x="220.12" y="-584.5" font-family="Helvetica,sans-Serif" font-size="10.00">syn6288_init</text>
</a>
</g>
</g>
<!-- Node1&#45;&gt;Node3 -->
<g id="edge2_Node000001_Node000003" class="edge">
<title>Node1&#45;&gt;Node3</title>
<g id="a_edge2_Node000001_Node000003"><a xlink:title=" ">
<path fill="none" stroke="#63b8ff" d="M58,-334.45C60.84,-372.15 75.75,-502.51 148.75,-569 155.67,-575.3 164.46,-579.55 173.47,-582.4"/>
<polygon fill="#63b8ff" stroke="#63b8ff" points="172.43,-585.75 182.98,-584.85 174.17,-578.97 172.43,-585.75"/>
</a>
</g>
</g>
<!-- Node4 -->
<g id="Node000004" class="node">
<title>Node4</title>
<g id="a_Node000004"><a xlink:href="group__syn6288__interface__driver.html#ga8d908434f5e01635c9fd22ec0231fed5" target="_top" xlink:title="interface print format data">
<polygon fill="white" stroke="#666666" points="283.62,-560 156.62,-560 156.62,-528 283.62,-528 283.62,-560"/>
<text xml:space="preserve" text-anchor="start" x="164.62" y="-546.5" font-family="Helvetica,sans-Serif" font-size="10.00">syn6288_interface_debug</text>
<text xml:space="preserve" text-anchor="middle" x="220.12" y="-534.5" font-family="Helvetica,sans-Serif" font-size="10.00">_print</text>
</a>
</g>
</g>
<!-- Node1&#45;&gt;Node4 -->
<g id="edge3_Node000001_Node000004" class="edge">
<title>Node1&#45;&gt;Node4</title>
<g id="a_edge3_Node000001_Node000004"><a xlink:title=" ">
<path fill="none" stroke="#63b8ff" d="M59.25,-334.13C65.68,-366.03 89.78,-465.48 148.75,-519 149.66,-519.83 150.6,-520.63 151.57,-521.4"/>
<polygon fill="#63b8ff" stroke="#63b8ff" points="149.38,-524.15 159.62,-526.85 153.3,-518.35 149.38,-524.15"/>
</a>
</g>
</g>
<!-- Node5 -->
<g id="Node000005" class="node">
<title>Node5</title>
<g id="a_Node000005"><a xlink:href="group__syn6288__interface__driver.html#ga2ae3e2be27e5353a523d7d65955e87ec" target="_top" xlink:title="interface delay ms">
<polygon fill="white" stroke="#666666" points="291.5,-510 148.75,-510 148.75,-490 291.5,-490 291.5,-510"/>
<text xml:space="preserve" text-anchor="middle" x="220.12" y="-496.5" font-family="Helvetica,sans-Serif" font-size="10.00">syn6288_interface_delay_ms</text>
</a>
</g>
</g>
<!-- Node1&#45;&gt;Node5 -->
<g id="edge4_Node000001_Node000005" class="edge">
<title>Node1&#45;&gt;Node5</title>
<g id="a_edge4_Node000001_Node000005"><a xlink:title=" ">
<path fill="none" stroke="#63b8ff" d="M60.32,-334.28C68.9,-362.4 96.68,-441.11 148.75,-481 150.3,-482.19 151.93,-483.31 153.61,-484.35"/>
<polygon fill="#63b8ff" stroke="#63b8ff" points="151.89,-487.41 162.38,-488.91 155.12,-481.2 151.89,-487.41"/>
</a>
</g>
</g>
<!-- Node6 -->
<g id="Node000006" class="node">
<title>Node6</title>
<g id="a_Node000006"><a xlink:href="group__syn6288__interface__driver.html#ga676a7766dcfa0dc2254afe53b990551c" target="_top" xlink:title="interface uart deinit">
<polygon fill="white" stroke="#666666" points="278.75,-472 161.5,-472 161.5,-440 278.75,-440 278.75,-472"/>
<text xml:space="preserve" text-anchor="start" x="169.5" y="-458.5" font-family="Helvetica,sans-Serif" font-size="10.00">syn6288_interface_uart</text>
<text xml:space="preserve" text-anchor="middle" x="220.12" y="-446.5" font-family="Helvetica,sans-Serif" font-size="10.00">_deinit</text>
</a>
</g>
</g>
<!-- Node1&#45;&gt;Node6 -->
<g id="edge5_Node000001_Node000006" class="edge">
<title>Node1&#45;&gt;Node6</title>
<g id="a_edge5_Node000001_Node000006"><a xlink:title=" ">
<path fill="none" stroke="#63b8ff" d="M63.58,-334.41C76.7,-355.56 109.31,-403.86 148.75,-431 150.51,-432.21 152.34,-433.37 154.22,-434.48"/>
<polygon fill="#63b8ff" stroke="#63b8ff" points="152.13,-437.34 162.6,-438.91 155.39,-431.15 152.13,-437.34"/>
</a>
</g>
</g>
<!-- Node7 -->
<g id="Node000007" class="node">
<title>Node7</title>
<g id="a_Node000007"><a xlink:href="group__syn6288__interface__driver.html#ga2cb6b345ed55477c38ac977a441f306a" target="_top" xlink:title="interface uart flush">
<polygon fill="white" stroke="#666666" points="278.75,-422 161.5,-422 161.5,-390 278.75,-390 278.75,-422"/>
<text xml:space="preserve" text-anchor="start" x="169.5" y="-408.5" font-family="Helvetica,sans-Serif" font-size="10.00">syn6288_interface_uart</text>
<text xml:space="preserve" text-anchor="middle" x="220.12" y="-396.5" font-family="Helvetica,sans-Serif" font-size="10.00">_flush</text>
</a>
</g>
</g>
<!-- Node1&#45;&gt;Node7 -->
<g id="edge6_Node000001_Node000007" class="edge">
<title>Node1&#45;&gt;Node7</title>
<g id="a_edge6_Node000001_Node000007"><a xlink:title=" ">
<path fill="none" stroke="#63b8ff" d="M71.69,-334.3C89.22,-346.58 120.12,-367.19 148.75,-381 151.8,-382.47 154.97,-383.91 158.19,-385.29"/>
<polygon fill="#63b8ff" stroke="#63b8ff" points="156.62,-388.43 167.2,-388.98 159.27,-381.95 156.62,-388.43"/>
</a>
</g>
</g>
<!-- Node8 -->
<g id="Node000008" class="node">
<title>Node8</title>
<g id="a_Node000008"><a xlink:href="group__syn6288__interface__driver.html#gabb78bfd4a638ff1a1fb82f16dc1dafae" target="_top" xlink:title="interface uart init">
<polygon fill="white" stroke="#666666" points="287.75,-372 152.5,-372 152.5,-352 287.75,-352 287.75,-372"/>
<text xml:space="preserve" text-anchor="middle" x="220.12" y="-358.5" font-family="Helvetica,sans-Serif" font-size="10.00">syn6288_interface_uart_init</text>
</a>
</g>
</g>
<!-- Node1&#45;&gt;Node8 -->
<g id="edge7_Node000001_Node000008" class="edge">
<title>Node1&#45;&gt;Node8</title>
<g id="a_edge7_Node000001_Node000008"><a xlink:title=" ">
<path fill="none" stroke="#63b8ff" d="M102,-334.48C121.01,-338.95 143.38,-344.21 163.45,-348.92"/>
<polygon fill="#63b8ff" stroke="#63b8ff" points="162.63,-352.32 173.17,-351.2 164.24,-345.51 162.63,-352.32"/>
</a>
</g>
</g>
<!-- Node9 -->
<g id="Node000009" class="node">
<title>Node9</title>
<g id="a_Node000009"><a xlink:href="group__syn6288__interface__driver.html#ga599eae13420243c3d6dd0b906b13cc76" target="_top" xlink:title="interface uart read">
<polygon fill="white" stroke="#666666" points="290.75,-334 149.5,-334 149.5,-314 290.75,-314 290.75,-334"/>
<text xml:space="preserve" text-anchor="middle" x="220.12" y="-320.5" font-family="Helvetica,sans-Serif" font-size="10.00">syn6288_interface_uart_read</text>
</a>
</g>
</g>
<!-- Node1&#45;&gt;Node9 -->
<g id="edge8_Node000001_Node000009" class="edge">
<title>Node1&#45;&gt;Node9</title>
<g id="a_edge8_Node000001_Node000009"><a xlink:title=" ">
<path fill="none" stroke="#63b8ff" d="M113.04,-324C121.02,-324 129.36,-324 137.71,-324"/>
<polygon fill="#63b8ff" stroke="#63b8ff" points="137.56,-327.5 147.56,-324 137.56,-320.5 137.56,-327.5"/>
</a>
</g>
</g>
<!-- Node10 -->
<g id="Node000010" class="node">
<title>Node10</title>
<g id="a_Node000010"><a xlink:href="group__syn6288__interface__driver.html#ga39eba20627ad33e4de41d46a0d28a3a7" target="_top" xlink:title="interface uart write">
<polygon fill="white" stroke="#666666" points="278.75,-296 161.5,-296 161.5,-264 278.75,-264 278.75,-296"/>
<text xml:space="preserve" text-anchor="start" x="169.5" y="-282.5" font-family="Helvetica,sans-Serif" font-size="10.00">syn6288_interface_uart</text>
<text xml:space="preserve" text-anchor="middle" x="220.12" y="-270.5" font-family="Helvetica,sans-Serif" font-size="10.00">_write</text>
</a>
</g>
</g>
<!-- Node1&#45;&gt;Node10 -->
<g id="edge9_Node000001_Node000010" class="edge">
<title>Node1&#45;&gt;Node10</title>
<g id="a_edge9_Node000001_Node000010"><a xlink:title=" ">
<path fill="none" stroke="#63b8ff" d="M95.71,-313.57C112.03,-309.13 131.58,-303.81 150.26,-298.73"/>
<polygon fill="#63b8ff" stroke="#63b8ff" points="150.94,-302.18 159.67,-296.17 149.1,-295.42 150.94,-302.18"/>
</a>
</g>
</g>
<!-- Node11 -->
<g id="Node000011" class="node">
<title>Node11</title>
<g id="a_Node000011"><a xlink:href="group__syn6288__advance__driver.html#ga7779717d2691e76488d674b2f295e998" target="_top" xlink:title="set the synthesis background volume">
<polygon fill="white" stroke="#666666" points="283.62,-246 156.62,-246 156.62,-214 283.62,-214 283.62,-246"/>
<text xml:space="preserve" text-anchor="start" x="164.62" y="-232.5" font-family="Helvetica,sans-Serif" font-size="10.00">syn6288_set_background</text>
<text xml:space="preserve" text-anchor="middle" x="220.12" y="-220.5" font-family="Helvetica,sans-Serif" font-size="10.00">_volume</text>
</a>
</g>
</g>
<!-- Node1&#45;&gt;Node11 -->
<g id="edge10_Node000001_Node000011" class="edge">
<title>Node1&#45;&gt;Node11</title>
<g id="a_edge10_Node000001_Node000011"><a xlink:title=" ">
<path fill="none" stroke="#63b8ff" d="M68.7,-313.61C85.23,-298.88 117.42,-271.87 148.75,-255 151.39,-253.58 154.12,-252.21 156.92,-250.9"/>
<polygon fill="#63b8ff" stroke="#63b8ff" points="158.07,-254.21 165.83,-246.99 155.27,-247.8 158.07,-254.21"/>
</a>
</g>
</g>
<!-- Node13 -->
<g id="Node000013" class="node">
<title>Node13</title>
<g id="a_Node000013"><a xlink:href="group__syn6288__advance__driver.html#ga88dfc43e01e0ecfb6bb83906bfea2209" target="_top" xlink:title="set the baud rate">
<polygon fill="white" stroke="#666666" points="279.88,-196 160.38,-196 160.38,-176 279.88,-176 279.88,-196"/>
<text xml:space="preserve" text-anchor="middle" x="220.12" y="-182.5" font-family="Helvetica,sans-Serif" font-size="10.00">syn6288_set_baud_rate</text>
</a>
</g>
</g>
<!-- Node1&#45;&gt;Node13 -->
<g id="edge12_Node000001_Node000013" class="edge">
<title>Node1&#45;&gt;Node13</title>
<g id="a_edge12_Node000001_Node000013"><a xlink:title=" ">
<path fill="none" stroke="#63b8ff" d="M62.36,-313.57C74.04,-290.31 105.46,-233.98 148.75,-205 150.84,-203.6 153.04,-202.3 155.3,-201.1"/>
<polygon fill="#63b8ff" stroke="#63b8ff" points="156.57,-204.36 164.23,-197.04 153.68,-197.99 156.57,-204.36"/>
</a>
</g>
</g>
<!-- Node14 -->
<g id="Node000014" class="node">
<title>Node14</title>
<g id="a_Node000014"><a xlink:href="group__syn6288__advance__driver.html#gaf3de945a8d0663543550a756e6ae8fda" target="_top" xlink:title="set the chip mode">
<polygon fill="white" stroke="#666666" points="270.5,-158 169.75,-158 169.75,-138 270.5,-138 270.5,-158"/>
<text xml:space="preserve" text-anchor="middle" x="220.12" y="-144.5" font-family="Helvetica,sans-Serif" font-size="10.00">syn6288_set_mode</text>
</a>
</g>
</g>
<!-- Node1&#45;&gt;Node14 -->
<g id="edge13_Node000001_Node000014" class="edge">
<title>Node1&#45;&gt;Node14</title>
<g id="a_edge13_Node000001_Node000014"><a xlink:title=" ">
<path fill="none" stroke="#63b8ff" d="M60.32,-313.72C68.9,-285.6 96.68,-206.89 148.75,-167 151.91,-164.58 155.36,-162.47 158.97,-160.62"/>
<polygon fill="#63b8ff" stroke="#63b8ff" points="160.3,-163.86 168.11,-156.7 157.54,-157.43 160.3,-163.86"/>
</a>
</g>
</g>
<!-- Node15 -->
<g id="Node000015" class="node">
<title>Node15</title>
<g id="a_Node000015"><a xlink:href="group__syn6288__advance__driver.html#gadc8b68adae8667594baf8d825e0e3bef" target="_top" xlink:title="set the synthesis speed">
<polygon fill="white" stroke="#666666" points="279.5,-120 160.75,-120 160.75,-88 279.5,-88 279.5,-120"/>
<text xml:space="preserve" text-anchor="start" x="168.75" y="-106.5" font-family="Helvetica,sans-Serif" font-size="10.00">syn6288_set_synthesis</text>
<text xml:space="preserve" text-anchor="middle" x="220.12" y="-94.5" font-family="Helvetica,sans-Serif" font-size="10.00">_speed</text>
</a>
</g>
</g>
<!-- Node1&#45;&gt;Node15 -->
<g id="edge14_Node000001_Node000015" class="edge">
<title>Node1&#45;&gt;Node15</title>
<g id="a_edge14_Node000001_Node000015"><a xlink:title=" ">
<path fill="none" stroke="#63b8ff" d="M59.25,-313.87C65.68,-281.97 89.78,-182.52 148.75,-129 149.66,-128.17 150.6,-127.37 151.57,-126.6"/>
<polygon fill="#63b8ff" stroke="#63b8ff" points="153.3,-129.65 159.62,-121.15 149.38,-123.85 153.3,-129.65"/>
</a>
</g>
</g>
<!-- Node16 -->
<g id="Node000016" class="node">
<title>Node16</title>
<g id="a_Node000016"><a xlink:href="group__syn6288__advance__driver.html#gabd267b2200ad54f47604537e18a81b8d" target="_top" xlink:title="set the chip synthesis volume">
<polygon fill="white" stroke="#666666" points="279.5,-70 160.75,-70 160.75,-38 279.5,-38 279.5,-70"/>
<text xml:space="preserve" text-anchor="start" x="168.75" y="-56.5" font-family="Helvetica,sans-Serif" font-size="10.00">syn6288_set_synthesis</text>
<text xml:space="preserve" text-anchor="middle" x="220.12" y="-44.5" font-family="Helvetica,sans-Serif" font-size="10.00">_volume</text>
</a>
</g>
</g>
<!-- Node1&#45;&gt;Node16 -->
<g id="edge16_Node000001_Node000016" class="edge">
<title>Node1&#45;&gt;Node16</title>
<g id="a_edge16_Node000001_Node000016"><a xlink:title=" ">
<path fill="none" stroke="#63b8ff" d="M58.18,-313.74C61.63,-276.68 78.39,-148.27 148.75,-79 149.63,-78.14 150.54,-77.3 151.48,-76.5"/>
<polygon fill="#63b8ff" stroke="#63b8ff" points="153.25,-79.53 159.35,-70.87 149.18,-73.84 153.25,-79.53"/>
</a>
</g>
</g>
<!-- Node17 -->
<g id="Node000017" class="node">
<title>Node17</title>
<g id="a_Node000017"><a xlink:href="group__syn6288__base__driver.html#gab302171c5896a397705d630f3e0499e7" target="_top" xlink:title="set the chip text type">
<polygon fill="white" stroke="#666666" points="278.75,-20 161.5,-20 161.5,0 278.75,0 278.75,-20"/>
<text xml:space="preserve" text-anchor="middle" x="220.12" y="-6.5" font-family="Helvetica,sans-Serif" font-size="10.00">syn6288_set_text_type</text>
</a>
</g>
</g>
<!-- Node1&#45;&gt;Node17 -->
<g id="edge18_Node000001_Node000017" class="edge">
<title>Node1&#45;&gt;Node17</title>
<g id="a_edge18_Node000001_Node000017"><a xlink:title=" ">
<path fill="none" stroke="#63b8ff" d="M57.25,-313.58C57.33,-271.34 63.44,-111.24 148.75,-29 149.66,-28.12 150.61,-27.28 151.59,-26.48"/>
<polygon fill="#63b8ff" stroke="#63b8ff" points="153.42,-29.47 159.88,-21.08 149.59,-23.6 153.42,-29.47"/>
</a>
</g>
</g>
<!-- Node12 -->
<g id="Node000012" class="node">
<title>Node12</title>
<g id="a_Node000012"><a xlink:href="group__syn6288__extend__driver.html#ga2c2a67b237aa4907f717a571e5a46a9e" target="_top" xlink:title="send the command to the chip">
<polygon fill="white" stroke="#666666" points="447,-114 327.5,-114 327.5,-94 447,-94 447,-114"/>
<text xml:space="preserve" text-anchor="middle" x="387.25" y="-100.5" font-family="Helvetica,sans-Serif" font-size="10.00">syn6288_set_command</text>
</a>
</g>
</g>
<!-- Node11&#45;&gt;Node12 -->
<g id="edge11_Node000011_Node000012" class="edge">
<title>Node11&#45;&gt;Node12</title>
<g id="a_edge11_Node000011_Node000012"><a xlink:title=" ">
<path fill="none" stroke="#63b8ff" d="M275.79,-213.56C281.28,-211.04 286.62,-208.19 291.5,-205 325.35,-182.86 355.63,-146.2 372.41,-123.67"/>
<polygon fill="#63b8ff" stroke="#63b8ff" points="375.2,-125.78 378.25,-115.63 369.54,-121.67 375.2,-125.78"/>
</a>
</g>
</g>
<!-- Node15&#45;&gt;Node12 -->
<g id="edge15_Node000015_Node000012" class="edge">
<title>Node15&#45;&gt;Node12</title>
<g id="a_edge15_Node000015_Node000012"><a xlink:title=" ">
<path fill="none" stroke="#63b8ff" d="M279.81,-104C291.47,-104 303.82,-104 315.83,-104"/>
<polygon fill="#63b8ff" stroke="#63b8ff" points="315.69,-107.5 325.69,-104 315.69,-100.5 315.69,-107.5"/>
</a>
</g>
</g>
<!-- Node16&#45;&gt;Node12 -->
<g id="edge17_Node000016_Node000012" class="edge">
<title>Node16&#45;&gt;Node12</title>
<g id="a_edge17_Node000016_Node000012"><a xlink:title=" ">
<path fill="none" stroke="#63b8ff" d="M275.19,-70.37C296.46,-76.81 320.61,-84.12 340.94,-90.28"/>
<polygon fill="#63b8ff" stroke="#63b8ff" points="339.76,-93.58 350.35,-93.13 341.79,-86.88 339.76,-93.58"/>
</a>
</g>
</g>
</g>
</svg>
