<?xml version="1.0" encoding="UTF-8" standalone="no"?>
<!DOCTYPE svg PUBLIC "-//W3C//DTD SVG 1.1//EN"
 "http://www.w3.org/Graphics/SVG/1.1/DTD/svg11.dtd">
<!-- Generated by graphviz version 13.1.0 (20250701.0955)
 -->
<!-- Title: syn6288_basic_synthesis Pages: 1 -->
<svg width="294pt" height="66pt"
 viewBox="0.00 0.00 294.00 66.00" xmlns="http://www.w3.org/2000/svg" xmlns:xlink="http://www.w3.org/1999/xlink">
<g id="graph0" class="graph" transform="scale(1 1) rotate(0) translate(4 62)">
<title>syn6288_basic_synthesis</title>
<!-- Node1 -->
<g id="Node000001" class="node">
<title>Node1</title>
<g id="a_Node000001"><a xlink:title="basic example synthesis">
<polygon fill="#999999" stroke="#666666" points="128.5,-39 0,-39 0,-19 128.5,-19 128.5,-39"/>
<text xml:space="preserve" text-anchor="middle" x="64.25" y="-25.5" font-family="Helvetica,sans-Serif" font-size="10.00">syn6288_basic_synthesis</text>
</a>
</g>
</g>
<!-- Node2 -->
<g id="Node000002" class="node">
<title>Node2</title>
<g id="a_Node000002"><a xlink:href="group__syn6288__base__driver.html#ga9c9b9c4f81113eef3024fcff0bcc11b1" target="_top" xlink:title="get the current status">
<polygon fill="white" stroke="#666666" points="277.25,-58 173.5,-58 173.5,-38 277.25,-38 277.25,-58"/>
<text xml:space="preserve" text-anchor="middle" x="225.38" y="-44.5" font-family="Helvetica,sans-Serif" font-size="10.00">syn6288_get_status</text>
</a>
</g>
</g>
<!-- Node1&#45;&gt;Node2 -->
<g id="edge1_Node000001_Node000002" class="edge">
<title>Node1&#45;&gt;Node2</title>
<g id="a_edge1_Node000001_Node000002"><a xlink:title=" ">
<path fill="none" stroke="#63b8ff" d="M128.6,-36.56C139.66,-37.88 151.16,-39.26 162.19,-40.58"/>
<polygon fill="#63b8ff" stroke="#63b8ff" points="161.64,-44.03 171.98,-41.74 162.47,-37.08 161.64,-44.03"/>
</a>
</g>
</g>
<!-- Node3 -->
<g id="Node000003" class="node">
<title>Node3</title>
<g id="a_Node000003"><a xlink:href="group__syn6288__base__driver.html#gad678c0e030bf6630163fa943b9c437d0" target="_top" xlink:title="synthesis the test">
<polygon fill="white" stroke="#666666" points="286.25,-20 164.5,-20 164.5,0 286.25,0 286.25,-20"/>
<text xml:space="preserve" text-anchor="middle" x="225.38" y="-6.5" font-family="Helvetica,sans-Serif" font-size="10.00">syn6288_synthesis_text</text>
</a>
</g>
</g>
<!-- Node1&#45;&gt;Node3 -->
<g id="edge2_Node000001_Node000003" class="edge">
<title>Node1&#45;&gt;Node3</title>
<g id="a_edge2_Node000001_Node000003"><a xlink:title=" ">
<path fill="none" stroke="#63b8ff" d="M128.6,-21.44C136.55,-20.49 144.73,-19.51 152.8,-18.55"/>
<polygon fill="#63b8ff" stroke="#63b8ff" points="153.08,-22.04 162.59,-17.38 152.25,-15.09 153.08,-22.04"/>
</a>
</g>
</g>
</g>
</svg>
