<?xml version="1.0" encoding="UTF-8" standalone="no"?>
<!DOCTYPE svg PUBLIC "-//W3C//DTD SVG 1.1//EN"
 "http://www.w3.org/Graphics/SVG/1.1/DTD/svg11.dtd">
<!-- Generated by graphviz version 13.1.0 (20250701.0955)
 -->
<!-- Title: syn6288_basic_sync Pages: 1 -->
<svg width="294pt" height="66pt"
 viewBox="0.00 0.00 294.00 66.00" xmlns="http://www.w3.org/2000/svg" xmlns:xlink="http://www.w3.org/1999/xlink">
<g id="graph0" class="graph" transform="scale(1 1) rotate(0) translate(4 62)">
<title>syn6288_basic_sync</title>
<!-- Node1 -->
<g id="Node000001" class="node">
<title>Node1</title>
<g id="a_Node000001"><a xlink:title="basic example sync">
<polygon fill="#999999" stroke="#666666" points="107.5,-39 0,-39 0,-19 107.5,-19 107.5,-39"/>
<text xml:space="preserve" text-anchor="middle" x="53.75" y="-25.5" font-family="Helvetica,sans-Serif" font-size="10.00">syn6288_basic_sync</text>
</a>
</g>
</g>
<!-- Node2 -->
<g id="Node000002" class="node">
<title>Node2</title>
<g id="a_Node000002"><a xlink:href="group__syn6288__base__driver.html#ga9c9b9c4f81113eef3024fcff0bcc11b1" target="_top" xlink:title="get the current status">
<polygon fill="white" stroke="#666666" points="266.75,-58 163,-58 163,-38 266.75,-38 266.75,-58"/>
<text xml:space="preserve" text-anchor="middle" x="214.88" y="-44.5" font-family="Helvetica,sans-Serif" font-size="10.00">syn6288_get_status</text>
</a>
</g>
</g>
<!-- Node1&#45;&gt;Node2 -->
<g id="edge1_Node000001_Node000002" class="edge">
<title>Node1&#45;&gt;Node2</title>
<g id="a_edge1_Node000001_Node000002"><a xlink:title=" ">
<path fill="none" stroke="#63b8ff" d="M107.74,-35.33C121.72,-37 136.94,-38.81 151.37,-40.54"/>
<polygon fill="#63b8ff" stroke="#63b8ff" points="150.89,-44 161.24,-41.71 151.72,-37.05 150.89,-44"/>
</a>
</g>
</g>
<!-- Node3 -->
<g id="Node000003" class="node">
<title>Node3</title>
<g id="a_Node000003"><a xlink:href="group__syn6288__interface__driver.html#ga2ae3e2be27e5353a523d7d65955e87ec" target="_top" xlink:title="interface delay ms">
<polygon fill="white" stroke="#666666" points="286.25,-20 143.5,-20 143.5,0 286.25,0 286.25,-20"/>
<text xml:space="preserve" text-anchor="middle" x="214.88" y="-6.5" font-family="Helvetica,sans-Serif" font-size="10.00">syn6288_interface_delay_ms</text>
</a>
</g>
</g>
<!-- Node1&#45;&gt;Node3 -->
<g id="edge2_Node000001_Node000003" class="edge">
<title>Node1&#45;&gt;Node3</title>
<g id="a_edge2_Node000001_Node000003"><a xlink:title=" ">
<path fill="none" stroke="#63b8ff" d="M107.74,-22.67C115.57,-21.74 123.79,-20.76 132.04,-19.77"/>
<polygon fill="#63b8ff" stroke="#63b8ff" points="132.26,-23.27 141.78,-18.61 131.43,-16.32 132.26,-23.27"/>
</a>
</g>
</g>
</g>
</svg>
