<?xml version="1.0" encoding="UTF-8" standalone="no"?>
<!DOCTYPE svg PUBLIC "-//W3C//DTD SVG 1.1//EN"
 "http://www.w3.org/Graphics/SVG/1.1/DTD/svg11.dtd">
<!-- Generated by graphviz version 13.1.0 (20250701.0955)
 -->
<!-- Title: syn6288_basic_init Pages: 1 -->
<svg width="442pt" height="644pt"
 viewBox="0.00 0.00 442.00 644.00" xmlns="http://www.w3.org/2000/svg" xmlns:xlink="http://www.w3.org/1999/xlink">
<g id="graph0" class="graph" transform="scale(1 1) rotate(0) translate(4 640)">
<title>syn6288_basic_init</title>
<!-- Node1 -->
<g id="Node000001" class="node">
<title>Node1</title>
<g id="a_Node000001"><a xlink:title="basic example init">
<polygon fill="#999999" stroke="#666666" points="99.25,-334 0,-334 0,-314 99.25,-314 99.25,-334"/>
<text xml:space="preserve" text-anchor="middle" x="49.62" y="-320.5" font-family="Helvetica,sans-Serif" font-size="10.00">syn6288_basic_init</text>
</a>
</g>
</g>
<!-- Node2 -->
<g id="Node000002" class="node">
<title>Node2</title>
<g id="a_Node000002"><a xlink:href="group__syn6288__base__driver.html#gac385bc0cec9baa9c51defeffcb354da4" target="_top" xlink:title="close the chip">
<polygon fill="white" stroke="#666666" points="247.25,-636 166,-636 166,-616 247.25,-616 247.25,-636"/>
<text xml:space="preserve" text-anchor="middle" x="206.62" y="-622.5" font-family="Helvetica,sans-Serif" font-size="10.00">syn6288_deinit</text>
</a>
</g>
</g>
<!-- Node1&#45;&gt;Node2 -->
<g id="edge1_Node000001_Node000002" class="edge">
<title>Node1&#45;&gt;Node2</title>
<g id="a_edge1_Node000001_Node000002"><a xlink:title=" ">
<path fill="none" stroke="#63b8ff" d="M50.38,-334.27C50,-375.17 54.23,-528.12 135.25,-607 140.73,-612.34 147.55,-616.21 154.77,-619.02"/>
<polygon fill="#63b8ff" stroke="#63b8ff" points="153.49,-622.29 164.08,-621.96 155.6,-615.61 153.49,-622.29"/>
</a>
</g>
</g>
<!-- Node3 -->
<g id="Node000003" class="node">
<title>Node3</title>
<g id="a_Node000003"><a xlink:href="group__syn6288__base__driver.html#ga1a996c8a944c78d467bfc250a9c9c326" target="_top" xlink:title="initialize the chip">
<polygon fill="white" stroke="#666666" points="242,-598 171.25,-598 171.25,-578 242,-578 242,-598"/>
<text xml:space="preserve" text-anchor="middle" x="206.62" y="-584.5" font-family="Helvetica,sans-Serif" font-size="10.00">syn6288_init</text>
</a>
</g>
</g>
<!-- Node1&#45;&gt;Node3 -->
<g id="edge2_Node000001_Node000003" class="edge">
<title>Node1&#45;&gt;Node3</title>
<g id="a_edge2_Node000001_Node000003"><a xlink:title=" ">
<path fill="none" stroke="#63b8ff" d="M50.94,-334.43C52.64,-372.06 63.7,-502.22 135.25,-569 142.09,-575.38 150.85,-579.67 159.85,-582.53"/>
<polygon fill="#63b8ff" stroke="#63b8ff" points="158.81,-585.87 169.37,-584.98 160.56,-579.09 158.81,-585.87"/>
</a>
</g>
</g>
<!-- Node4 -->
<g id="Node000004" class="node">
<title>Node4</title>
<g id="a_Node000004"><a xlink:href="group__syn6288__interface__driver.html#ga8d908434f5e01635c9fd22ec0231fed5" target="_top" xlink:title="interface print format data">
<polygon fill="white" stroke="#666666" points="270.12,-560 143.12,-560 143.12,-528 270.12,-528 270.12,-560"/>
<text xml:space="preserve" text-anchor="start" x="151.12" y="-546.5" font-family="Helvetica,sans-Serif" font-size="10.00">syn6288_interface_debug</text>
<text xml:space="preserve" text-anchor="middle" x="206.62" y="-534.5" font-family="Helvetica,sans-Serif" font-size="10.00">_print</text>
</a>
</g>
</g>
<!-- Node1&#45;&gt;Node4 -->
<g id="edge3_Node000001_Node000004" class="edge">
<title>Node1&#45;&gt;Node4</title>
<g id="a_edge3_Node000001_Node000004"><a xlink:title=" ">
<path fill="none" stroke="#63b8ff" d="M52.12,-334.11C57.37,-365.98 77.81,-465.34 135.25,-519 136.02,-519.72 136.81,-520.41 137.61,-521.09"/>
<polygon fill="#63b8ff" stroke="#63b8ff" points="135.49,-523.88 145.69,-526.74 139.5,-518.14 135.49,-523.88"/>
</a>
</g>
</g>
<!-- Node5 -->
<g id="Node000005" class="node">
<title>Node5</title>
<g id="a_Node000005"><a xlink:href="group__syn6288__interface__driver.html#ga2ae3e2be27e5353a523d7d65955e87ec" target="_top" xlink:title="interface delay ms">
<polygon fill="white" stroke="#666666" points="278,-510 135.25,-510 135.25,-490 278,-490 278,-510"/>
<text xml:space="preserve" text-anchor="middle" x="206.62" y="-496.5" font-family="Helvetica,sans-Serif" font-size="10.00">syn6288_interface_delay_ms</text>
</a>
</g>
</g>
<!-- Node1&#45;&gt;Node5 -->
<g id="edge4_Node000001_Node000005" class="edge">
<title>Node1&#45;&gt;Node5</title>
<g id="a_edge4_Node000001_Node000005"><a xlink:title=" ">
<path fill="none" stroke="#63b8ff" d="M53.11,-334.27C60.45,-362.36 84.77,-441 135.25,-481 136.75,-482.19 138.32,-483.3 139.94,-484.35"/>
<polygon fill="#63b8ff" stroke="#63b8ff" points="137.95,-487.25 148.42,-488.89 141.26,-481.08 137.95,-487.25"/>
</a>
</g>
</g>
<!-- Node6 -->
<g id="Node000006" class="node">
<title>Node6</title>
<g id="a_Node000006"><a xlink:href="group__syn6288__interface__driver.html#ga676a7766dcfa0dc2254afe53b990551c" target="_top" xlink:title="interface uart deinit">
<polygon fill="white" stroke="#666666" points="265.25,-472 148,-472 148,-440 265.25,-440 265.25,-472"/>
<text xml:space="preserve" text-anchor="start" x="156" y="-458.5" font-family="Helvetica,sans-Serif" font-size="10.00">syn6288_interface_uart</text>
<text xml:space="preserve" text-anchor="middle" x="206.62" y="-446.5" font-family="Helvetica,sans-Serif" font-size="10.00">_deinit</text>
</a>
</g>
</g>
<!-- Node1&#45;&gt;Node6 -->
<g id="edge5_Node000001_Node000006" class="edge">
<title>Node1&#45;&gt;Node6</title>
<g id="a_edge5_Node000001_Node000006"><a xlink:title=" ">
<path fill="none" stroke="#63b8ff" d="M56.17,-334.42C67.95,-355.61 97.51,-403.97 135.25,-431 136.81,-432.12 138.42,-433.19 140.08,-434.21"/>
<polygon fill="#63b8ff" stroke="#63b8ff" points="138.17,-437.16 148.63,-438.89 141.54,-431.02 138.17,-437.16"/>
</a>
</g>
</g>
<!-- Node7 -->
<g id="Node000007" class="node">
<title>Node7</title>
<g id="a_Node000007"><a xlink:href="group__syn6288__interface__driver.html#ga2cb6b345ed55477c38ac977a441f306a" target="_top" xlink:title="interface uart flush">
<polygon fill="white" stroke="#666666" points="265.25,-422 148,-422 148,-390 265.25,-390 265.25,-422"/>
<text xml:space="preserve" text-anchor="start" x="156" y="-408.5" font-family="Helvetica,sans-Serif" font-size="10.00">syn6288_interface_uart</text>
<text xml:space="preserve" text-anchor="middle" x="206.62" y="-396.5" font-family="Helvetica,sans-Serif" font-size="10.00">_flush</text>
</a>
</g>
</g>
<!-- Node1&#45;&gt;Node7 -->
<g id="edge6_Node000001_Node000007" class="edge">
<title>Node1&#45;&gt;Node7</title>
<g id="a_edge6_Node000001_Node000007"><a xlink:title=" ">
<path fill="none" stroke="#63b8ff" d="M63.76,-334.39C79.87,-346.75 108.36,-367.44 135.25,-381 138.13,-382.45 141.11,-383.85 144.14,-385.21"/>
<polygon fill="#63b8ff" stroke="#63b8ff" points="142.65,-388.38 153.23,-389.02 145.36,-381.92 142.65,-388.38"/>
</a>
</g>
</g>
<!-- Node8 -->
<g id="Node000008" class="node">
<title>Node8</title>
<g id="a_Node000008"><a xlink:href="group__syn6288__interface__driver.html#gabb78bfd4a638ff1a1fb82f16dc1dafae" target="_top" xlink:title="interface uart init">
<polygon fill="white" stroke="#666666" points="274.25,-372 139,-372 139,-352 274.25,-352 274.25,-372"/>
<text xml:space="preserve" text-anchor="middle" x="206.62" y="-358.5" font-family="Helvetica,sans-Serif" font-size="10.00">syn6288_interface_uart_init</text>
</a>
</g>
</g>
<!-- Node1&#45;&gt;Node8 -->
<g id="edge7_Node000001_Node000008" class="edge">
<title>Node1&#45;&gt;Node8</title>
<g id="a_edge7_Node000001_Node000008"><a xlink:title=" ">
<path fill="none" stroke="#63b8ff" d="M93.39,-334.48C111.52,-338.93 132.84,-344.16 152.01,-348.85"/>
<polygon fill="#63b8ff" stroke="#63b8ff" points="150.98,-352.21 161.53,-351.19 152.65,-345.41 150.98,-352.21"/>
</a>
</g>
</g>
<!-- Node9 -->
<g id="Node000009" class="node">
<title>Node9</title>
<g id="a_Node000009"><a xlink:href="group__syn6288__interface__driver.html#ga599eae13420243c3d6dd0b906b13cc76" target="_top" xlink:title="interface uart read">
<polygon fill="white" stroke="#666666" points="277.25,-334 136,-334 136,-314 277.25,-314 277.25,-334"/>
<text xml:space="preserve" text-anchor="middle" x="206.62" y="-320.5" font-family="Helvetica,sans-Serif" font-size="10.00">syn6288_interface_uart_read</text>
</a>
</g>
</g>
<!-- Node1&#45;&gt;Node9 -->
<g id="edge8_Node000001_Node000009" class="edge">
<title>Node1&#45;&gt;Node9</title>
<g id="a_edge8_Node000001_Node000009"><a xlink:title=" ">
<path fill="none" stroke="#63b8ff" d="M99.67,-324C107.53,-324 115.85,-324 124.23,-324"/>
<polygon fill="#63b8ff" stroke="#63b8ff" points="124.15,-327.5 134.15,-324 124.15,-320.5 124.15,-327.5"/>
</a>
</g>
</g>
<!-- Node10 -->
<g id="Node000010" class="node">
<title>Node10</title>
<g id="a_Node000010"><a xlink:href="group__syn6288__interface__driver.html#ga39eba20627ad33e4de41d46a0d28a3a7" target="_top" xlink:title="interface uart write">
<polygon fill="white" stroke="#666666" points="265.25,-296 148,-296 148,-264 265.25,-264 265.25,-296"/>
<text xml:space="preserve" text-anchor="start" x="156" y="-282.5" font-family="Helvetica,sans-Serif" font-size="10.00">syn6288_interface_uart</text>
<text xml:space="preserve" text-anchor="middle" x="206.62" y="-270.5" font-family="Helvetica,sans-Serif" font-size="10.00">_write</text>
</a>
</g>
</g>
<!-- Node1&#45;&gt;Node10 -->
<g id="edge9_Node000001_Node000010" class="edge">
<title>Node1&#45;&gt;Node10</title>
<g id="a_edge9_Node000001_Node000010"><a xlink:title=" ">
<path fill="none" stroke="#63b8ff" d="M87.36,-313.57C102.12,-309.38 119.64,-304.41 136.61,-299.59"/>
<polygon fill="#63b8ff" stroke="#63b8ff" points="137.53,-302.97 146.19,-296.87 135.61,-296.24 137.53,-302.97"/>
</a>
</g>
</g>
<!-- Node11 -->
<g id="Node000011" class="node">
<title>Node11</title>
<g id="a_Node000011"><a xlink:href="group__syn6288__advance__driver.html#ga7779717d2691e76488d674b2f295e998" target="_top" xlink:title="set the synthesis background volume">
<polygon fill="white" stroke="#666666" points="270.12,-246 143.12,-246 143.12,-214 270.12,-214 270.12,-246"/>
<text xml:space="preserve" text-anchor="start" x="151.12" y="-232.5" font-family="Helvetica,sans-Serif" font-size="10.00">syn6288_set_background</text>
<text xml:space="preserve" text-anchor="middle" x="206.62" y="-220.5" font-family="Helvetica,sans-Serif" font-size="10.00">_volume</text>
</a>
</g>
</g>
<!-- Node1&#45;&gt;Node11 -->
<g id="edge10_Node000001_Node000011" class="edge">
<title>Node1&#45;&gt;Node11</title>
<g id="a_edge10_Node000001_Node000011"><a xlink:title=" ">
<path fill="none" stroke="#63b8ff" d="M60.96,-313.55C76.09,-298.75 105.68,-271.64 135.25,-255 137.59,-253.69 140,-252.42 142.47,-251.2"/>
<polygon fill="#63b8ff" stroke="#63b8ff" points="143.82,-254.44 151.48,-247.12 140.93,-248.06 143.82,-254.44"/>
</a>
</g>
</g>
<!-- Node13 -->
<g id="Node000013" class="node">
<title>Node13</title>
<g id="a_Node000013"><a xlink:href="group__syn6288__advance__driver.html#ga88dfc43e01e0ecfb6bb83906bfea2209" target="_top" xlink:title="set the baud rate">
<polygon fill="white" stroke="#666666" points="266.38,-196 146.88,-196 146.88,-176 266.38,-176 266.38,-196"/>
<text xml:space="preserve" text-anchor="middle" x="206.62" y="-182.5" font-family="Helvetica,sans-Serif" font-size="10.00">syn6288_set_baud_rate</text>
</a>
</g>
</g>
<!-- Node1&#45;&gt;Node13 -->
<g id="edge12_Node000001_Node000013" class="edge">
<title>Node1&#45;&gt;Node13</title>
<g id="a_edge12_Node000001_Node000013"><a xlink:title=" ">
<path fill="none" stroke="#63b8ff" d="M55.03,-313.57C65.39,-290.31 93.64,-233.97 135.25,-205 137.2,-203.64 139.24,-202.39 141.35,-201.22"/>
<polygon fill="#63b8ff" stroke="#63b8ff" points="142.7,-204.45 150.25,-197.02 139.71,-198.12 142.7,-204.45"/>
</a>
</g>
</g>
<!-- Node14 -->
<g id="Node000014" class="node">
<title>Node14</title>
<g id="a_Node000014"><a xlink:href="group__syn6288__advance__driver.html#gaf3de945a8d0663543550a756e6ae8fda" target="_top" xlink:title="set the chip mode">
<polygon fill="white" stroke="#666666" points="257,-158 156.25,-158 156.25,-138 257,-138 257,-158"/>
<text xml:space="preserve" text-anchor="middle" x="206.62" y="-144.5" font-family="Helvetica,sans-Serif" font-size="10.00">syn6288_set_mode</text>
</a>
</g>
</g>
<!-- Node1&#45;&gt;Node14 -->
<g id="edge13_Node000001_Node000014" class="edge">
<title>Node1&#45;&gt;Node14</title>
<g id="a_edge13_Node000001_Node000014"><a xlink:title=" ">
<path fill="none" stroke="#63b8ff" d="M53.11,-313.73C60.45,-285.64 84.77,-207 135.25,-167 138.37,-164.53 141.79,-162.38 145.38,-160.5"/>
<polygon fill="#63b8ff" stroke="#63b8ff" points="146.71,-163.74 154.48,-156.54 143.91,-157.32 146.71,-163.74"/>
</a>
</g>
</g>
<!-- Node15 -->
<g id="Node000015" class="node">
<title>Node15</title>
<g id="a_Node000015"><a xlink:href="group__syn6288__advance__driver.html#gadc8b68adae8667594baf8d825e0e3bef" target="_top" xlink:title="set the synthesis speed">
<polygon fill="white" stroke="#666666" points="266,-120 147.25,-120 147.25,-88 266,-88 266,-120"/>
<text xml:space="preserve" text-anchor="start" x="155.25" y="-106.5" font-family="Helvetica,sans-Serif" font-size="10.00">syn6288_set_synthesis</text>
<text xml:space="preserve" text-anchor="middle" x="206.62" y="-94.5" font-family="Helvetica,sans-Serif" font-size="10.00">_speed</text>
</a>
</g>
</g>
<!-- Node1&#45;&gt;Node15 -->
<g id="edge14_Node000001_Node000015" class="edge">
<title>Node1&#45;&gt;Node15</title>
<g id="a_edge14_Node000001_Node000015"><a xlink:title=" ">
<path fill="none" stroke="#63b8ff" d="M52.12,-313.89C57.37,-282.02 77.81,-182.66 135.25,-129 136.02,-128.28 136.81,-127.59 137.61,-126.91"/>
<polygon fill="#63b8ff" stroke="#63b8ff" points="139.5,-129.86 145.69,-121.26 135.49,-124.12 139.5,-129.86"/>
</a>
</g>
</g>
<!-- Node16 -->
<g id="Node000016" class="node">
<title>Node16</title>
<g id="a_Node000016"><a xlink:href="group__syn6288__advance__driver.html#gabd267b2200ad54f47604537e18a81b8d" target="_top" xlink:title="set the chip synthesis volume">
<polygon fill="white" stroke="#666666" points="266,-70 147.25,-70 147.25,-38 266,-38 266,-70"/>
<text xml:space="preserve" text-anchor="start" x="155.25" y="-56.5" font-family="Helvetica,sans-Serif" font-size="10.00">syn6288_set_synthesis</text>
<text xml:space="preserve" text-anchor="middle" x="206.62" y="-44.5" font-family="Helvetica,sans-Serif" font-size="10.00">_volume</text>
</a>
</g>
</g>
<!-- Node1&#45;&gt;Node16 -->
<g id="edge16_Node000001_Node000016" class="edge">
<title>Node1&#45;&gt;Node16</title>
<g id="a_edge16_Node000001_Node000016"><a xlink:title=" ">
<path fill="none" stroke="#63b8ff" d="M51.13,-313.5C53.5,-276.17 66.5,-148.35 135.25,-79 136.12,-78.13 137.02,-77.28 137.95,-76.47"/>
<polygon fill="#63b8ff" stroke="#63b8ff" points="139.73,-79.5 145.76,-70.79 135.62,-73.83 139.73,-79.5"/>
</a>
</g>
</g>
<!-- Node17 -->
<g id="Node000017" class="node">
<title>Node17</title>
<g id="a_Node000017"><a xlink:href="group__syn6288__base__driver.html#gab302171c5896a397705d630f3e0499e7" target="_top" xlink:title="set the chip text type">
<polygon fill="white" stroke="#666666" points="265.25,-20 148,-20 148,0 265.25,0 265.25,-20"/>
<text xml:space="preserve" text-anchor="middle" x="206.62" y="-6.5" font-family="Helvetica,sans-Serif" font-size="10.00">syn6288_set_text_type</text>
</a>
</g>
</g>
<!-- Node1&#45;&gt;Node17 -->
<g id="edge18_Node000001_Node000017" class="edge">
<title>Node1&#45;&gt;Node17</title>
<g id="a_edge18_Node000001_Node000017"><a xlink:title=" ">
<path fill="none" stroke="#63b8ff" d="M50.23,-313.6C49.24,-271.44 51.34,-111.61 135.25,-29 136.15,-28.11 137.09,-27.26 138.06,-26.46"/>
<polygon fill="#63b8ff" stroke="#63b8ff" points="139.9,-29.44 146.31,-21 136.04,-23.6 139.9,-29.44"/>
</a>
</g>
</g>
<!-- Node12 -->
<g id="Node000012" class="node">
<title>Node12</title>
<g id="a_Node000012"><a xlink:href="group__syn6288__extend__driver.html#ga2c2a67b237aa4907f717a571e5a46a9e" target="_top" xlink:title="send the command to the chip">
<polygon fill="white" stroke="#666666" points="433.5,-114 314,-114 314,-94 433.5,-94 433.5,-114"/>
<text xml:space="preserve" text-anchor="middle" x="373.75" y="-100.5" font-family="Helvetica,sans-Serif" font-size="10.00">syn6288_set_command</text>
</a>
</g>
</g>
<!-- Node11&#45;&gt;Node12 -->
<g id="edge11_Node000011_Node000012" class="edge">
<title>Node11&#45;&gt;Node12</title>
<g id="a_edge11_Node000011_Node000012"><a xlink:title=" ">
<path fill="none" stroke="#63b8ff" d="M262.29,-213.56C267.78,-211.04 273.12,-208.19 278,-205 311.85,-182.86 342.13,-146.2 358.91,-123.67"/>
<polygon fill="#63b8ff" stroke="#63b8ff" points="361.7,-125.78 364.75,-115.63 356.04,-121.67 361.7,-125.78"/>
</a>
</g>
</g>
<!-- Node15&#45;&gt;Node12 -->
<g id="edge15_Node000015_Node000012" class="edge">
<title>Node15&#45;&gt;Node12</title>
<g id="a_edge15_Node000015_Node000012"><a xlink:title=" ">
<path fill="none" stroke="#63b8ff" d="M266.31,-104C277.97,-104 290.32,-104 302.33,-104"/>
<polygon fill="#63b8ff" stroke="#63b8ff" points="302.19,-107.5 312.19,-104 302.19,-100.5 302.19,-107.5"/>
</a>
</g>
</g>
<!-- Node16&#45;&gt;Node12 -->
<g id="edge17_Node000016_Node000012" class="edge">
<title>Node16&#45;&gt;Node12</title>
<g id="a_edge17_Node000016_Node000012"><a xlink:title=" ">
<path fill="none" stroke="#63b8ff" d="M261.69,-70.37C282.96,-76.81 307.11,-84.12 327.44,-90.28"/>
<polygon fill="#63b8ff" stroke="#63b8ff" points="326.26,-93.58 336.85,-93.13 328.29,-86.88 326.26,-93.58"/>
</a>
</g>
</g>
</g>
</svg>
