<?xml version="1.0" encoding="UTF-8" standalone="no"?>
<!DOCTYPE svg PUBLIC "-//W3C//DTD SVG 1.1//EN"
 "http://www.w3.org/Graphics/SVG/1.1/DTD/svg11.dtd">
<!-- Generated by graphviz version 13.1.0 (20250701.0955)
 -->
<!-- Title: syn6288_advance_sync Pages: 1 -->
<svg width="308pt" height="66pt"
 viewBox="0.00 0.00 308.00 66.00" xmlns="http://www.w3.org/2000/svg" xmlns:xlink="http://www.w3.org/1999/xlink">
<g id="graph0" class="graph" transform="scale(1 1) rotate(0) translate(4 62)">
<title>syn6288_advance_sync</title>
<!-- Node1 -->
<g id="Node000001" class="node">
<title>Node1</title>
<g id="a_Node000001"><a xlink:title="advance example sync">
<polygon fill="#999999" stroke="#666666" points="121,-39 0,-39 0,-19 121,-19 121,-39"/>
<text xml:space="preserve" text-anchor="middle" x="60.5" y="-25.5" font-family="Helvetica,sans-Serif" font-size="10.00">syn6288_advance_sync</text>
</a>
</g>
</g>
<!-- Node2 -->
<g id="Node000002" class="node">
<title>Node2</title>
<g id="a_Node000002"><a xlink:href="group__syn6288__base__driver.html#ga9c9b9c4f81113eef3024fcff0bcc11b1" target="_top" xlink:title="get the current status">
<polygon fill="white" stroke="#666666" points="280.25,-58 176.5,-58 176.5,-38 280.25,-38 280.25,-58"/>
<text xml:space="preserve" text-anchor="middle" x="228.38" y="-44.5" font-family="Helvetica,sans-Serif" font-size="10.00">syn6288_get_status</text>
</a>
</g>
</g>
<!-- Node1&#45;&gt;Node2 -->
<g id="edge1_Node000001_Node000002" class="edge">
<title>Node1&#45;&gt;Node2</title>
<g id="a_edge1_Node000001_Node000002"><a xlink:title=" ">
<path fill="none" stroke="#63b8ff" d="M121.38,-35.86C135.52,-37.48 150.62,-39.21 164.86,-40.84"/>
<polygon fill="#63b8ff" stroke="#63b8ff" points="164.23,-44.29 174.57,-41.95 165.03,-37.34 164.23,-44.29"/>
</a>
</g>
</g>
<!-- Node3 -->
<g id="Node000003" class="node">
<title>Node3</title>
<g id="a_Node000003"><a xlink:href="group__syn6288__interface__driver.html#ga2ae3e2be27e5353a523d7d65955e87ec" target="_top" xlink:title="interface delay ms">
<polygon fill="white" stroke="#666666" points="299.75,-20 157,-20 157,0 299.75,0 299.75,-20"/>
<text xml:space="preserve" text-anchor="middle" x="228.38" y="-6.5" font-family="Helvetica,sans-Serif" font-size="10.00">syn6288_interface_delay_ms</text>
</a>
</g>
</g>
<!-- Node1&#45;&gt;Node3 -->
<g id="edge2_Node000001_Node000003" class="edge">
<title>Node1&#45;&gt;Node3</title>
<g id="a_edge2_Node000001_Node000003"><a xlink:title=" ">
<path fill="none" stroke="#63b8ff" d="M121.38,-22.14C129.14,-21.25 137.19,-20.33 145.23,-19.41"/>
<polygon fill="#63b8ff" stroke="#63b8ff" points="145.52,-22.9 155.06,-18.28 144.73,-15.94 145.52,-22.9"/>
</a>
</g>
</g>
</g>
</svg>
