<?xml version="1.0" encoding="UTF-8" standalone="no"?>
<!DOCTYPE svg PUBLIC "-//W3C//DTD SVG 1.1//EN"
 "http://www.w3.org/Graphics/SVG/1.1/DTD/svg11.dtd">
<!-- Generated by graphviz version 13.1.0 (20250701.0955)
 -->
<!-- Title: syn6288_advance_message Pages: 1 -->
<svg width="329pt" height="66pt"
 viewBox="0.00 0.00 329.00 66.00" xmlns="http://www.w3.org/2000/svg" xmlns:xlink="http://www.w3.org/1999/xlink">
<g id="graph0" class="graph" transform="scale(1 1) rotate(0) translate(4 62)">
<title>syn6288_advance_message</title>
<!-- Node1 -->
<g id="Node000001" class="node">
<title>Node1</title>
<g id="a_Node000001"><a xlink:title="advance example play the message">
<polygon fill="#999999" stroke="#666666" points="139.75,-39 0,-39 0,-19 139.75,-19 139.75,-39"/>
<text xml:space="preserve" text-anchor="middle" x="69.88" y="-25.5" font-family="Helvetica,sans-Serif" font-size="10.00">syn6288_advance_message</text>
</a>
</g>
</g>
<!-- Node2 -->
<g id="Node000002" class="node">
<title>Node2</title>
<g id="a_Node000002"><a xlink:href="group__syn6288__base__driver.html#ga9c9b9c4f81113eef3024fcff0bcc11b1" target="_top" xlink:title="get the current status">
<polygon fill="white" stroke="#666666" points="300.12,-58 196.38,-58 196.38,-38 300.12,-38 300.12,-58"/>
<text xml:space="preserve" text-anchor="middle" x="248.25" y="-44.5" font-family="Helvetica,sans-Serif" font-size="10.00">syn6288_get_status</text>
</a>
</g>
</g>
<!-- Node1&#45;&gt;Node2 -->
<g id="edge1_Node000001_Node000002" class="edge">
<title>Node1&#45;&gt;Node2</title>
<g id="a_edge1_Node000001_Node000002"><a xlink:title=" ">
<path fill="none" stroke="#63b8ff" d="M140.08,-36.45C154.77,-38.04 170.21,-39.7 184.64,-41.26"/>
<polygon fill="#63b8ff" stroke="#63b8ff" points="184.15,-44.72 194.47,-42.31 184.9,-37.76 184.15,-44.72"/>
</a>
</g>
</g>
<!-- Node3 -->
<g id="Node000003" class="node">
<title>Node3</title>
<g id="a_Node000003"><a xlink:href="group__syn6288__base__driver.html#gaba6d2b003d859497a5d00faa7b6ed0ba" target="_top" xlink:title="synthesis the message">
<polygon fill="white" stroke="#666666" points="320.75,-20 175.75,-20 175.75,0 320.75,0 320.75,-20"/>
<text xml:space="preserve" text-anchor="middle" x="248.25" y="-6.5" font-family="Helvetica,sans-Serif" font-size="10.00">syn6288_synthesis_message</text>
</a>
</g>
</g>
<!-- Node1&#45;&gt;Node3 -->
<g id="edge2_Node000001_Node000003" class="edge">
<title>Node1&#45;&gt;Node3</title>
<g id="a_edge2_Node000001_Node000003"><a xlink:title=" ">
<path fill="none" stroke="#63b8ff" d="M140.08,-21.55C147.95,-20.7 156.03,-19.83 164.06,-18.96"/>
<polygon fill="#63b8ff" stroke="#63b8ff" points="164.27,-22.46 173.84,-17.91 163.52,-15.5 164.27,-22.46"/>
</a>
</g>
</g>
</g>
</svg>
