<?xml version="1.0" encoding="UTF-8" standalone="no"?>
<!DOCTYPE svg PUBLIC "-//W3C//DTD SVG 1.1//EN"
 "http://www.w3.org/Graphics/SVG/1.1/DTD/svg11.dtd">
<!-- Generated by graphviz version 13.1.0 (20250701.0955)
 -->
<!-- Title: syn6288_advance_ring Pages: 1 -->
<svg width="281pt" height="66pt"
 viewBox="0.00 0.00 281.00 66.00" xmlns="http://www.w3.org/2000/svg" xmlns:xlink="http://www.w3.org/1999/xlink">
<g id="graph0" class="graph" transform="scale(1 1) rotate(0) translate(4 62)">
<title>syn6288_advance_ring</title>
<!-- Node1 -->
<g id="Node000001" class="node">
<title>Node1</title>
<g id="a_Node000001"><a xlink:title="advance example play the ring">
<polygon fill="#999999" stroke="#666666" points="115.75,-39 0,-39 0,-19 115.75,-19 115.75,-39"/>
<text xml:space="preserve" text-anchor="middle" x="57.88" y="-25.5" font-family="Helvetica,sans-Serif" font-size="10.00">syn6288_advance_ring</text>
</a>
</g>
</g>
<!-- Node2 -->
<g id="Node000002" class="node">
<title>Node2</title>
<g id="a_Node000002"><a xlink:href="group__syn6288__base__driver.html#ga9c9b9c4f81113eef3024fcff0bcc11b1" target="_top" xlink:title="get the current status">
<polygon fill="white" stroke="#666666" points="264.12,-58 160.38,-58 160.38,-38 264.12,-38 264.12,-58"/>
<text xml:space="preserve" text-anchor="middle" x="212.25" y="-44.5" font-family="Helvetica,sans-Serif" font-size="10.00">syn6288_get_status</text>
</a>
</g>
</g>
<!-- Node1&#45;&gt;Node2 -->
<g id="edge1_Node000001_Node000002" class="edge">
<title>Node1&#45;&gt;Node2</title>
<g id="a_edge1_Node000001_Node000002"><a xlink:title=" ">
<path fill="none" stroke="#63b8ff" d="M116.05,-36.13C126.83,-37.47 138.15,-38.89 149.08,-40.25"/>
<polygon fill="#63b8ff" stroke="#63b8ff" points="148.42,-43.69 158.77,-41.46 149.28,-36.75 148.42,-43.69"/>
</a>
</g>
</g>
<!-- Node3 -->
<g id="Node000003" class="node">
<title>Node3</title>
<g id="a_Node000003"><a xlink:href="group__syn6288__base__driver.html#gade9f9fb4171422070805f2019f13e517" target="_top" xlink:title="synthesis the ring">
<polygon fill="white" stroke="#666666" points="272.75,-20 151.75,-20 151.75,0 272.75,0 272.75,-20"/>
<text xml:space="preserve" text-anchor="middle" x="212.25" y="-6.5" font-family="Helvetica,sans-Serif" font-size="10.00">syn6288_synthesis_ring</text>
</a>
</g>
</g>
<!-- Node1&#45;&gt;Node3 -->
<g id="edge2_Node000001_Node000003" class="edge">
<title>Node1&#45;&gt;Node3</title>
<g id="a_edge2_Node000001_Node000003"><a xlink:title=" ">
<path fill="none" stroke="#63b8ff" d="M116.05,-21.87C123.91,-20.89 132.06,-19.87 140.14,-18.87"/>
<polygon fill="#63b8ff" stroke="#63b8ff" points="140.48,-22.35 149.97,-17.64 139.61,-15.41 140.48,-22.35"/>
</a>
</g>
</g>
</g>
</svg>
