<?xml version="1.0" encoding="UTF-8" standalone="no"?>
<!DOCTYPE svg PUBLIC "-//W3C//DTD SVG 1.1//EN"
 "http://www.w3.org/Graphics/SVG/1.1/DTD/svg11.dtd">
<!-- Generated by graphviz version 13.1.0 (20250701.0955)
 -->
<!-- Title: syn6288_advance_sound Pages: 1 -->
<svg width="302pt" height="66pt"
 viewBox="0.00 0.00 302.00 66.00" xmlns="http://www.w3.org/2000/svg" xmlns:xlink="http://www.w3.org/1999/xlink">
<g id="graph0" class="graph" transform="scale(1 1) rotate(0) translate(4 62)">
<title>syn6288_advance_sound</title>
<!-- Node1 -->
<g id="Node000001" class="node">
<title>Node1</title>
<g id="a_Node000001"><a xlink:title="advance example play the sound">
<polygon fill="#999999" stroke="#666666" points="126.25,-39 0,-39 0,-19 126.25,-19 126.25,-39"/>
<text xml:space="preserve" text-anchor="middle" x="63.12" y="-25.5" font-family="Helvetica,sans-Serif" font-size="10.00">syn6288_advance_sound</text>
</a>
</g>
</g>
<!-- Node2 -->
<g id="Node000002" class="node">
<title>Node2</title>
<g id="a_Node000002"><a xlink:href="group__syn6288__base__driver.html#ga9c9b9c4f81113eef3024fcff0bcc11b1" target="_top" xlink:title="get the current status">
<polygon fill="white" stroke="#666666" points="279.88,-58 176.12,-58 176.12,-38 279.88,-38 279.88,-58"/>
<text xml:space="preserve" text-anchor="middle" x="228" y="-44.5" font-family="Helvetica,sans-Serif" font-size="10.00">syn6288_get_status</text>
</a>
</g>
</g>
<!-- Node1&#45;&gt;Node2 -->
<g id="edge1_Node000001_Node000002" class="edge">
<title>Node1&#45;&gt;Node2</title>
<g id="a_edge1_Node000001_Node000002"><a xlink:title=" ">
<path fill="none" stroke="#63b8ff" d="M126.63,-36.29C139.06,-37.74 152.12,-39.26 164.55,-40.71"/>
<polygon fill="#63b8ff" stroke="#63b8ff" points="163.91,-44.16 174.25,-41.85 164.72,-37.21 163.91,-44.16"/>
</a>
</g>
</g>
<!-- Node3 -->
<g id="Node000003" class="node">
<title>Node3</title>
<g id="a_Node000003"><a xlink:href="group__syn6288__base__driver.html#ga2c7459c1b9e23464e8a73f8aaaa13418" target="_top" xlink:title="synthesis the sound">
<polygon fill="white" stroke="#666666" points="293.75,-20 162.25,-20 162.25,0 293.75,0 293.75,-20"/>
<text xml:space="preserve" text-anchor="middle" x="228" y="-6.5" font-family="Helvetica,sans-Serif" font-size="10.00">syn6288_synthesis_sound</text>
</a>
</g>
</g>
<!-- Node1&#45;&gt;Node3 -->
<g id="edge2_Node000001_Node000003" class="edge">
<title>Node1&#45;&gt;Node3</title>
<g id="a_edge2_Node000001_Node000003"><a xlink:title=" ">
<path fill="none" stroke="#63b8ff" d="M126.63,-21.71C134.5,-20.79 142.61,-19.84 150.66,-18.91"/>
<polygon fill="#63b8ff" stroke="#63b8ff" points="150.93,-22.4 160.46,-17.76 150.12,-15.44 150.93,-22.4"/>
</a>
</g>
</g>
</g>
</svg>
