<?xml version="1.0" encoding="UTF-8" standalone="no"?>
<!DOCTYPE svg PUBLIC "-//W3C//DTD SVG 1.1//EN"
 "http://www.w3.org/Graphics/SVG/1.1/DTD/svg11.dtd">
<!-- Generated by graphviz version 13.1.0 (20250701.0955)
 -->
<!-- Title: syn6288 driver function Pages: 1 -->
<svg width="282pt" height="340pt"
 viewBox="0.00 0.00 282.00 340.00" xmlns="http://www.w3.org/2000/svg" xmlns:xlink="http://www.w3.org/1999/xlink">
<g id="graph0" class="graph" transform="scale(1 1) rotate(0) translate(4 336)">
<title>syn6288 driver function</title>
<!-- Node4 -->
<g id="Node000004" class="node">
<title>Node4</title>
<g id="a_Node000004"><a xlink:href="group__syn6288__advance__driver.html" target="_top" xlink:title="syn6288 advance driver modules">
<polygon fill="white" stroke="#666666" points="273.12,-332 153.62,-332 153.62,-300 273.12,-300 273.12,-332"/>
<text xml:space="preserve" text-anchor="start" x="161.62" y="-318.5" font-family="Helvetica,sans-Serif" font-size="10.00">syn6288 advance driver</text>
<text xml:space="preserve" text-anchor="middle" x="213.38" y="-306.5" font-family="Helvetica,sans-Serif" font-size="10.00"> function</text>
</a>
</g>
</g>
<!-- Node3 -->
<g id="Node000003" class="node">
<title>Node3</title>
<g id="a_Node000003"><a xlink:href="group__syn6288__base__driver.html" target="_top" xlink:title="syn6288 base driver modules">
<polygon fill="white" stroke="#666666" points="265.25,-282 161.5,-282 161.5,-250 265.25,-250 265.25,-282"/>
<text xml:space="preserve" text-anchor="start" x="169.5" y="-268.5" font-family="Helvetica,sans-Serif" font-size="10.00">syn6288 base driver</text>
<text xml:space="preserve" text-anchor="middle" x="213.38" y="-256.5" font-family="Helvetica,sans-Serif" font-size="10.00"> function</text>
</a>
</g>
</g>
<!-- Node1 -->
<g id="Node000001" class="node">
<title>Node1</title>
<g id="a_Node000001"><a xlink:title="syn6288 driver modules">
<polygon fill="#999999" stroke="#666666" points="117.25,-176 0,-176 0,-156 117.25,-156 117.25,-176"/>
<text xml:space="preserve" text-anchor="middle" x="58.62" y="-162.5" font-family="Helvetica,sans-Serif" font-size="10.00">syn6288 driver function</text>
</a>
</g>
</g>
<!-- Node1&#45;&gt;Node4 -->
<g id="edge3" class="edge">
<title>Node1&#45;&gt;Node4</title>
<path fill="none" stroke="black" d="M70.16,-186.07C85.28,-213.18 115.53,-261.48 153.25,-291 157.29,-294.16 161.78,-296.99 166.44,-299.51"/>
<polygon fill="black" stroke="black" points="73.36,-184.63 65.51,-177.51 67.21,-187.97 73.36,-184.63"/>
</g>
<!-- Node1&#45;&gt;Node3 -->
<g id="edge2" class="edge">
<title>Node1&#45;&gt;Node3</title>
<path fill="none" stroke="black" d="M78.41,-183.65C96.53,-200.02 125.27,-224.32 153.25,-241 158.42,-244.08 164.04,-246.98 169.69,-249.63"/>
<polygon fill="black" stroke="black" points="81.26,-181.52 71.53,-177.33 76.53,-186.67 81.26,-181.52"/>
</g>
<!-- Node7 -->
<g id="Node000007" class="node">
<title>Node7</title>
<g id="a_Node000007"><a xlink:href="group__syn6288__example__driver.html" target="_top" xlink:title="syn6288 example driver modules">
<polygon fill="white" stroke="#666666" points="273.12,-232 153.62,-232 153.62,-200 273.12,-200 273.12,-232"/>
<text xml:space="preserve" text-anchor="start" x="161.62" y="-218.5" font-family="Helvetica,sans-Serif" font-size="10.00">syn6288 example driver</text>
<text xml:space="preserve" text-anchor="middle" x="213.38" y="-206.5" font-family="Helvetica,sans-Serif" font-size="10.00"> function</text>
</a>
</g>
</g>
<!-- Node1&#45;&gt;Node7 -->
<g id="edge6" class="edge">
<title>Node1&#45;&gt;Node7</title>
<path fill="none" stroke="black" d="M102.42,-180.01C120.94,-186.07 142.76,-193.21 162.06,-199.53"/>
<polygon fill="black" stroke="black" points="103.68,-176.74 93.08,-176.95 101.5,-183.39 103.68,-176.74"/>
</g>
<!-- Node5 -->
<g id="Node000005" class="node">
<title>Node5</title>
<g id="a_Node000005"><a xlink:href="group__syn6288__extend__driver.html" target="_top" xlink:title="syn6288 extend driver modules">
<polygon fill="white" stroke="#666666" points="269.38,-182 157.38,-182 157.38,-150 269.38,-150 269.38,-182"/>
<text xml:space="preserve" text-anchor="start" x="165.38" y="-168.5" font-family="Helvetica,sans-Serif" font-size="10.00">syn6288 extend driver</text>
<text xml:space="preserve" text-anchor="middle" x="213.38" y="-156.5" font-family="Helvetica,sans-Serif" font-size="10.00"> function</text>
</a>
</g>
</g>
<!-- Node1&#45;&gt;Node5 -->
<g id="edge4" class="edge">
<title>Node1&#45;&gt;Node5</title>
<path fill="none" stroke="black" d="M128.81,-166C138.28,-166 147.89,-166 157.07,-166"/>
<polygon fill="black" stroke="black" points="128.89,-162.5 118.89,-166 128.89,-169.5 128.89,-162.5"/>
</g>
<!-- Node6 -->
<g id="Node000006" class="node">
<title>Node6</title>
<g id="a_Node000006"><a xlink:href="group__syn6288__interface__driver.html" target="_top" xlink:title="syn6288 interface driver modules">
<polygon fill="white" stroke="#666666" points="273.5,-132 153.25,-132 153.25,-100 273.5,-100 273.5,-132"/>
<text xml:space="preserve" text-anchor="start" x="161.25" y="-118.5" font-family="Helvetica,sans-Serif" font-size="10.00">syn6288 interface driver</text>
<text xml:space="preserve" text-anchor="middle" x="213.38" y="-106.5" font-family="Helvetica,sans-Serif" font-size="10.00"> function</text>
</a>
</g>
</g>
<!-- Node1&#45;&gt;Node6 -->
<g id="edge5" class="edge">
<title>Node1&#45;&gt;Node6</title>
<path fill="none" stroke="black" d="M102.42,-151.99C120.94,-145.93 142.76,-138.79 162.06,-132.47"/>
<polygon fill="black" stroke="black" points="101.5,-148.61 93.08,-155.05 103.68,-155.26 101.5,-148.61"/>
</g>
<!-- Node2 -->
<g id="Node000002" class="node">
<title>Node2</title>
<g id="a_Node000002"><a xlink:href="group__syn6288__link__driver.html" target="_top" xlink:title="syn6288 link driver modules">
<polygon fill="white" stroke="#666666" points="262.25,-82 164.5,-82 164.5,-50 262.25,-50 262.25,-82"/>
<text xml:space="preserve" text-anchor="start" x="172.5" y="-68.5" font-family="Helvetica,sans-Serif" font-size="10.00">syn6288 link driver</text>
<text xml:space="preserve" text-anchor="middle" x="213.38" y="-56.5" font-family="Helvetica,sans-Serif" font-size="10.00"> function</text>
</a>
</g>
</g>
<!-- Node1&#45;&gt;Node2 -->
<g id="edge1" class="edge">
<title>Node1&#45;&gt;Node2</title>
<path fill="none" stroke="black" d="M78.41,-148.35C96.53,-131.98 125.27,-107.68 153.25,-91 158.42,-87.92 164.04,-85.02 169.69,-82.37"/>
<polygon fill="black" stroke="black" points="76.53,-145.33 71.53,-154.67 81.26,-150.48 76.53,-145.33"/>
</g>
<!-- Node8 -->
<g id="Node000008" class="node">
<title>Node8</title>
<g id="a_Node000008"><a xlink:href="group__syn6288__test__driver.html" target="_top" xlink:title="syn6288 test driver modules">
<polygon fill="white" stroke="#666666" points="263,-32 163.75,-32 163.75,0 263,0 263,-32"/>
<text xml:space="preserve" text-anchor="start" x="171.75" y="-18.5" font-family="Helvetica,sans-Serif" font-size="10.00">syn6288 test driver</text>
<text xml:space="preserve" text-anchor="middle" x="213.38" y="-6.5" font-family="Helvetica,sans-Serif" font-size="10.00"> function</text>
</a>
</g>
</g>
<!-- Node1&#45;&gt;Node8 -->
<g id="edge7" class="edge">
<title>Node1&#45;&gt;Node8</title>
<path fill="none" stroke="black" d="M70.16,-145.93C85.28,-118.82 115.53,-70.52 153.25,-41 157.29,-37.84 161.78,-35.01 166.44,-32.49"/>
<polygon fill="black" stroke="black" points="67.21,-144.03 65.51,-154.49 73.36,-147.37 67.21,-144.03"/>
</g>
</g>
</svg>
